<svg xmlns="http://www.w3.org/2000/svg" viewBox="0 0 1584 396" role="img" aria-labelledby="title">
  <title id="title">1devteam company banner 1584x396</title>
  <defs>
    <linearGradient id="bg" x1="0" x2="1" y1="0" y2="1">
      <stop offset="0" stop-color="#05080F"/>
      <stop offset="1" stop-color="#0A1120"/>
    </linearGradient>
    <radialGradient id="glow" cx="78%" cy="58%" r="48%">
      <stop offset="0" stop-color="#0066FF" stop-opacity=".42"/>
      <stop offset="1" stop-color="#0066FF" stop-opacity="0"/>
    </radialGradient>
  </defs>
  <rect width="1584" height="396" fill="url(#bg)"/>
  <rect width="1584" height="396" fill="url(#glow)"/>

  <g transform="translate(56 42) scale(.72)">
    <path fill="#0066FF" d="M42 18h34L60 38H56v74H42V18z"/>
    <path fill="#FFFFFF" d="M80 22h42c24 0 42 18 42 42s-18 42-42 42h-20l16-16h4c14 0 26-12 26-26s-12-26-26-26H80V22z"/>
    <path fill="#FFFFFF" d="M86 98 116 68l14 12-36 36H70z"/>
  </g>

  <text x="220" y="108" font-family="Inter, Arial, Helvetica, sans-serif" font-size="52" font-weight="700" letter-spacing="6" fill="#FFFFFF">1DEVTEAM</text>
  <text x="760" y="108" font-family="Inter, Arial, Helvetica, sans-serif" font-size="40" font-weight="700" fill="#FFFFFF">/</text>
  <text x="800" y="108" font-family="Inter, Arial, Helvetica, sans-serif" font-size="44" font-style="italic" font-weight="700" fill="#0066FF">P2iE</text>
  <text x="220" y="154" font-family="Inter, Arial, Helvetica, sans-serif" font-size="16" font-weight="500" letter-spacing="6" fill="#0066FF">BUILDING INTELLIGENT SOLUTIONS</text>

  <g fill="none" stroke="#0066FF" stroke-opacity=".38" transform="translate(1080 40)">
    <circle cx="210" cy="150" r="118"/>
    <circle cx="210" cy="150" r="80"/>
    <path d="M92 150h236M210 32v236M128 68l164 164M292 68l-164 164" stroke-width="2"/>
    <path d="M20 250C120 160 250 170 420 70" stroke-width="3"/>
    <path d="M0 290C140 210 280 220 460 140" stroke-width="2"/>
  </g>

  <g font-family="Inter, Arial, Helvetica, sans-serif" font-size="13" font-weight="600" letter-spacing="1.2" fill="#D1D5DB">
    <g transform="translate(80 250)" stroke="#0066FF" fill="none" stroke-width="1.8">
      <rect x="0" y="0" width="18" height="22" rx="3"/>
      <path d="M5 8h8M5 13h8"/>
    </g>
    <text x="110" y="266">AUTONOMOUS SYSTEMS</text>

    <g transform="translate(360 250)" stroke="#0066FF" fill="none" stroke-width="1.8">
      <circle cx="9" cy="9" r="8"/>
      <path d="M9 5v8M5 9h8"/>
    </g>
    <text x="390" y="266">INTELLIGENT AUTOMATION</text>

    <g transform="translate(660 250)" stroke="#0066FF" fill="none" stroke-width="1.8">
      <ellipse cx="10" cy="5" rx="9" ry="4"/>
      <path d="M1 5v8c0 2 4 4 9 4s9-2 9-4V5"/>
      <path d="M1 9c0 2 4 4 9 4s9-2 9-4"/>
    </g>
    <text x="690" y="266">DATA SOLUTIONS</text>

    <g transform="translate(930 250)" stroke="#0066FF" fill="none" stroke-width="1.8">
      <path d="M2 12h16M5 12V7h10v5M8 7V4h4v3"/>
    </g>
    <text x="960" y="266">SCALABLE INFRASTRUCTURE</text>

    <g transform="translate(1260 250)" stroke="#0066FF" fill="none" stroke-width="1.8">
      <path d="M9 2 16 5v6c0 4-3 7-7 8-4-1-7-4-7-8V5z"/>
    </g>
    <text x="1290" y="266">SECURE BY DESIGN</text>
  </g>
</svg>
